<svg width="126.889221" height="21.419922" viewBox="0 0 126.889 21.4199" fill="none" xmlns="http://www.w3.org/2000/svg" xmlns:xlink="http://www.w3.org/1999/xlink">
	<desc>
			Created with Pixso.
	</desc>
	<defs/>
	<path id="Метрика" d="M10.29 11.1L20.34 0L20.61 0L20.61 21.17L16.62 21.17L16.62 9.84L10.41 16.46L10.14 16.46L3.98 9.84L3.98 21.17L0 21.17L0 0L0.23 0L10.29 11.1ZM71.78 0.17L75.77 0.17L75.77 11.97L87.68 0L87.95 0L87.95 21.17L83.96 21.17L83.96 9.41L72.05 21.41L71.78 21.41L71.78 0.17ZM23 0.17L36.77 0.17L36.77 4.02L23 4.02L23 0.17ZM38.11 4.02L38.11 0.17L53.41 0.17L53.41 4.02L38.11 4.02ZM55.07 0.17L62.84 0.17C67.52 0.17 70.13 3.23 70.13 7.08C70.13 10.91 67.52 13.98 62.84 13.98L59.06 13.98L59.06 21.17L55.07 21.17L55.07 10.16L62.75 10.16C64.76 10.16 66.02 8.88 66.02 7.08C66.02 5.28 64.76 4.02 62.75 4.02L55.07 4.02L55.07 0.17ZM107.16 21.17L102.18 21.17L96.9 12.57L94.35 12.57L94.35 21.17L90.36 21.17L90.36 0.17L94.35 0.17L94.35 8.76L96.81 8.76L102.33 0.17L106.71 0.17L100.38 10.53L107.16 21.17ZM115.12 0.17L119.2 0.17L126.88 21.17L122.35 21.17L117.16 6.17L111.97 21.17L107.44 21.17L115.12 0.17ZM47.77 21.17L43.78 21.17L43.78 7.13L47.77 7.13L47.77 21.17ZM23 8.79L35.84 8.79L35.84 12.6L23 12.6L23 8.79ZM23 21.17L23 17.37L36.95 17.37L36.95 21.17L23 21.17Z" fill="#121212" fill-opacity="1.000000" fill-rule="evenodd"/>
</svg>
